<svg xmlns="http://www.w3.org/2000/svg" xmlns:xlink="http://www.w3.org/1999/xlink" xmlns:lucid="lucid" width="1640" height="1240"><g transform="translate(-60 -60)" lucid:page-tab-id="0_0"><path d="M650.77 88c0-4.42 3.6-8 8-8h443.9c4.4 0 8 3.58 8 8v26.15c0 4.4-3.6 8-8 8h-443.9c-4.4 0-8-3.6-8-8z" stroke="#000" stroke-opacity="0" stroke-width="2" fill="#fff" fill-opacity="0"/><use xlink:href="#a" transform="matrix(1,0,0,1,654.7738170744371,84) translate(199.51864197530864 23.657777777777778)"/><path d="M635.6 120.77h497.02M635.63 120.77h-1.03M1132.6 120.77h1.02" stroke="#b2b2b2" stroke-width="2" fill="none"/><path d="M650.4 129.07c0-4.4 3.57-8 8-8h444.4c4.4 0 8 3.6 8 8v4c0 4.42-3.6 8-8 8H658.4c-4.43 0-8-3.58-8-8z" stroke="#000" stroke-opacity="0" stroke-width="2" fill="#fff" fill-opacity="0"/><path d="M120 242c0-16.57 13.43-30 30-30h1500c16.57 0 30 13.43 30 30v1008c0 16.57-13.43 30-30 30H150c-16.57 0-30-13.43-30-30z" stroke="#fff" fill-opacity="0"/><path d="M228 214.4v3.54c0 6.42-7.1 13.05-15.76 13.05h-46.48c-8.66 0-15.75-6.64-15.75-13.06v-3.54z" fill="#9d5125"/><path d="M180.03 180c8.03 0 14.82 4.4 18.17 11.67 4.6-3.14 10.92-1.98 14.04 2.65 1.17 1.64 1.7 3.32 1.8 5.3 7.87.68 13.95 8.25 13.95 14.27v1.3c0 6.45-7.1 13-15.76 13h-46.5c-8.64 0-15.74-6.55-15.74-13v-1.3c0-5.02 4.2-11.87 10.06-13.56v-.57c.08-10.95 8.97-19.82 19.97-19.77z" fill="#f58535"/><path d="M169.54 203.13l-5.2 18.2h3.04l1.17-4.43h5.38l1.1 4.43h3.05l-4.8-18.2zm-.47 11.4l2.22-8.98 2.1 8.97zM191.2 217.34h-.03l-2.47-14.2h-3.1l-2.4 14.13h-.06l-2.4-14.14h-2.95l3.53 18.2h3.38l2.35-13.7h.06l2.36 13.7h3.4l3.64-18.2h-2.9l-2.4 14.2zM205.9 211.4l-1.98-.72c-1.93-.7-2.74-1.53-2.74-3.1-.17-1.26.74-2.43 2-2.6.16-.02.3-.02.45-.02 1.26-.17 2.4.72 2.58 1.96.04.25.03.44 0 .68v.38h2.93v-.4c0-1.9-.5-4.8-5.18-4.8-3.44 0-5.7 1.84-5.7 5.16 0 2.6 1.1 3.97 3.82 5l2 .68c1.6.23 2.73 1.6 2.64 3.2.04 1.45-1.08 2.64-2.5 2.68h-.28c-2 0-3-1.12-3-3.33v-.47h-2.9v.44c0 2.54 1.02 5.53 5.52 5.53 3.7 0 6.07-1.6 6.07-5.48.04-2.5-1.1-3.9-3.7-4.8z" fill="#fff"/><path d="M282.14 382c0-16.57 13.43-30 30-30H1610c16.57 0 30 13.43 30 30v828c0 16.57-13.43 30-30 30H312.14c-16.57 0-30-13.43-30-30z" stroke="#fff" fill-opacity="0"/><path d="M390.14 354.4v3.54c0 6.42-7.1 13.05-15.76 13.05H327.9c-8.65 0-15.75-6.64-15.75-13.06v-3.54z" fill="#9d5125"/><path d="M342.17 320c8.03 0 14.82 4.4 18.17 11.67 4.6-3.14 10.92-1.98 14.04 2.65 1.17 1.64 1.72 3.32 1.8 5.3 7.87.68 13.96 8.25 13.96 14.27v1.3c0 6.45-7.1 13-15.76 13H327.9c-8.66 0-15.76-6.55-15.76-13v-1.3c0-5.02 4.2-11.87 10.06-13.56v-.57c.08-10.95 8.97-19.82 19.97-19.77z" fill="#f58535"/><path d="M331.04 343.13h3.1l3.08 14.58 3.33-14.54h3.08l-4.6 18.2h-3.7zM345.5 343.13h5.78c3.5 0 5.04 2.2 5.04 5.3 0 3.1-1.9 5.4-5.33 5.4h-2.58v7.53h-2.9zm2.92 8.5h2.08c1.55 0 2.9-.83 2.9-3.14 0-1.98-.8-3.17-3.12-3.17h-1.86zM369.96 354.83v.38c0 3.32-1.33 6.52-5.62 6.52-4.6 0-6.04-2.97-6.04-9.47s1.44-9.46 6.05-9.46c5.2 0 5.54 3.8 5.54 5.7v.37h-2.92v-.3c0-1.7-.5-3.64-2.6-3.57-2.08.08-3.1 1.35-3.1 7.22 0 5.87.93 7.3 3.14 7.3 2.43 0 2.72-2.7 2.72-4.42v-.3z" fill="#fff"/><use xlink:href="#b" transform="matrix(1,0,0,1,282.1428571428572,1210) translate(660.7530864197531 12.888888888888888)"/><path d="M400 410c0-16.57 13.43-30 30-30h1140c16.57 0 30 13.43 30 30v300c0 16.57-13.43 30-30 30H430c-16.57 0-30-13.43-30-30z" fill-opacity="0"/><path d="M415.04 384.1l3.17-1.7 4.72-1.56 4.93-.76L430 380h15.2m15.2 0h30.4m15.2 0h30.4m15.2 0H582m15.2 0h30.4m15.2 0h30.4m15.2 0h30.4m15.2 0h30.4m15.2 0H810m15.2 0h30.4m15.2 0h30.4m15.2 0h30.4m15.2 0h30.4m15.2 0h30.4m15.2 0h30.4m15.2 0h30.4m15.2 0h30.4m15.2 0h30.4m15.2 0h30.4m15.2 0h30.4m15.2 0h30.4m15.2 0h30.4m15.2 0h30.4m15.2 0h30.4m15.2 0h30.4m15.2 0h15.2l5 .42 4.82 1.22 4.54 2 .6.42m10.95 10.98l1.7 3.17 1.56 4.72.76 4.93.08 2.15v14.3m0 14.27v28.57m0 14.3V510m0 14.3v28.56m0 14.28v28.57m0 14.3v28.57m0 14.3v28.56m0 14.28V710l-.42 5-1.22 4.82-2 4.54-.42.6m-10.98 10.95l-3.17 1.7-4.72 1.56-4.93.76-2.15.08h-15.2m-15.2 0h-30.4m-15.2 0h-30.4m-15.2 0H1418m-15.2 0h-30.4m-15.2 0h-30.4m-15.2 0h-30.4m-15.2 0h-30.4m-15.2 0H1190m-15.2 0h-30.4m-15.2 0h-30.4m-15.2 0h-30.4m-15.2 0h-30.4m-15.2 0H962m-15.2 0h-30.4m-15.2 0h-30.4m-15.2 0h-30.4m-15.2 0h-30.4m-15.2 0H734m-15.2 0h-30.4m-15.2 0h-30.4m-15.2 0h-30.4m-15.2 0h-30.4m-15.2 0H506m-15.2 0h-30.4m-15.2 0H430l-5-.42-4.82-1.22-4.54-2-.6-.42m-10.95-10.98l-1.7-3.17-1.56-4.72-.76-4.93L400 710v-14.3m0-14.27v-28.57m0-14.3V610m0-14.3v-28.56m0-14.28V524.3m0-14.3v-28.57m0-14.3v-28.56m0-14.28V410l.42-5 1.22-4.82 2-4.54.42-.6" stroke="#f7981f" stroke-width="3" fill="none"/><use xlink:href="#c" transform="matrix(1,0,0,1,399.9999999999999,710) translate(536.8302469135803 13.777777777777775)"/><use xlink:href="#d" transform="matrix(1,0,0,1,399.9999999999999,710) translate(614.0895061728395 13.777777777777775)"/><use xlink:href="#e" transform="matrix(1,0,0,1,399.9999999999999,710) translate(653.7993827160494 13.777777777777775)"/><path d="M440 462c0-16.57 13.43-30 30-30h460c16.57 0 30 13.43 30 30v188c0 16.57-13.43 30-30 30H470c-16.57 0-30-13.43-30-30z" stroke="#fff" fill-opacity="0"/><path d="M501.97 420.24v-5.9c0-7.25-5.88-13.13-13.12-13.13-7.24 0-13.12 5.9-13.12 13.14v5.9h6.64v-5.9c0-3.58 2.9-6.5 6.48-6.5 3.57 0 6.48 2.92 6.48 6.5v5.9h6.64z" fill="#876a22"/><path d="M501.98 420.26h5.42v20.83H470v-20.84h5.72v-7.1c0-7.28 5.87-13.16 13.13-13.16 7.26 0 13.13 5.88 13.13 13.15v7.1zm-6.66 0v-7.1c0-3.6-2.88-6.5-6.47-6.5-3.6 0-6.47 2.9-6.47 6.5v7.1h12.94z" fill="#daa835"/><path d="M470 441.1h37.4v.9H470z" fill="#876a22"/><use xlink:href="#f" transform="matrix(1,0,0,1,440,649.9999999999998) translate(229.77469135802468 13.777777777777775)"/><path d="M1040 462c0-16.57 13.43-30 30-30h460c16.57 0 30 13.43 30 30v188c0 16.57-13.43 30-30 30h-460c-16.57 0-30-13.43-30-30z" stroke="#fff" fill-opacity="0"/><path d="M1101.97 420.24v-5.9c0-7.25-5.88-13.13-13.12-13.13-7.24 0-13.12 5.9-13.12 13.14v5.9h6.64v-5.9c0-3.58 2.9-6.5 6.48-6.5 3.57 0 6.48 2.92 6.48 6.5v5.9h6.64z" fill="#876a22"/><path d="M1101.98 420.26h5.42v20.83H1070v-20.84h5.72v-7.1c0-7.28 5.87-13.16 13.13-13.16 7.26 0 13.13 5.88 13.13 13.15v7.1zm-6.66 0v-7.1c0-3.6-2.88-6.5-6.47-6.5-3.6 0-6.47 2.9-6.47 6.5v7.1h12.94z" fill="#daa835"/><path d="M1070 441.1h37.4v.9H1070z" fill="#876a22"/><use xlink:href="#g" transform="matrix(1,0,0,1,1040,649.9999999999998) translate(229.77469135802468 13.777777777777775)"/><path d="M400 850c0-16.57 13.43-30 30-30h1140c16.57 0 30 13.43 30 30v300c0 16.57-13.43 30-30 30H430c-16.57 0-30-13.43-30-30z" fill-opacity="0"/><path d="M415.04 824.1l3.17-1.7 4.72-1.56 4.93-.76L430 820h15.2m15.2 0h30.4m15.2 0h30.4m15.2 0H582m15.2 0h30.4m15.2 0h30.4m15.2 0h30.4m15.2 0h30.4m15.2 0H810m15.2 0h30.4m15.2 0h30.4m15.2 0h30.4m15.2 0h30.4m15.2 0h30.4m15.2 0h30.4m15.2 0h30.4m15.2 0h30.4m15.2 0h30.4m15.2 0h30.4m15.2 0h30.4m15.2 0h30.4m15.2 0h30.4m15.2 0h30.4m15.2 0h30.4m15.2 0h30.4m15.2 0h15.2l5 .42 4.82 1.22 4.54 2 .6.42m10.95 10.98l1.7 3.17 1.56 4.72.76 4.93.08 2.15v14.3m0 14.27v28.57m0 14.3V950m0 14.3v28.56m0 14.28v28.57m0 14.3v28.57m0 14.3v28.56m0 14.28v14.3l-.42 5-1.22 4.82-2 4.54-.42.6m-10.98 10.95l-3.17 1.7-4.72 1.56-4.93.76-2.15.08h-15.2m-15.2 0h-30.4m-15.2 0h-30.4m-15.2 0H1418m-15.2 0h-30.4m-15.2 0h-30.4m-15.2 0h-30.4m-15.2 0h-30.4m-15.2 0H1190m-15.2 0h-30.4m-15.2 0h-30.4m-15.2 0h-30.4m-15.2 0h-30.4m-15.2 0H962m-15.2 0h-30.4m-15.2 0h-30.4m-15.2 0h-30.4m-15.2 0h-30.4m-15.2 0H734m-15.2 0h-30.4m-15.2 0h-30.4m-15.2 0h-30.4m-15.2 0h-30.4m-15.2 0H506m-15.2 0h-30.4m-15.2 0H430l-5-.42-4.82-1.22-4.54-2-.6-.42m-10.95-10.98l-1.7-3.17-1.56-4.72-.76-4.93-.08-2.15v-14.3m0-14.27v-28.57m0-14.3V1050m0-14.3v-28.56m0-14.28V964.3m0-14.3v-28.57m0-14.3v-28.56m0-14.28V850l.42-5 1.22-4.82 2-4.54.42-.6" stroke="#f7981f" stroke-width="3" fill="none"/><use xlink:href="#c" transform="matrix(1,0,0,1,399.9999999999999,1150) translate(536.8302469135803 13.777777777777775)"/><use xlink:href="#d" transform="matrix(1,0,0,1,399.9999999999999,1150) translate(614.0895061728395 13.777777777777775)"/><use xlink:href="#h" transform="matrix(1,0,0,1,399.9999999999999,1150) translate(653.7993827160494 13.777777777777775)"/><path d="M440 902c0-16.57 13.43-30 30-30h460c16.57 0 30 13.43 30 30v188c0 16.57-13.43 30-30 30H470c-16.57 0-30-13.43-30-30z" stroke="#fff" fill-opacity="0"/><path d="M501.97 860.24v-5.9c0-7.25-5.88-13.13-13.12-13.13-7.24 0-13.12 5.9-13.12 13.14v5.9h6.64v-5.9c0-3.58 2.9-6.5 6.48-6.5 3.57 0 6.48 2.92 6.48 6.5v5.9h6.64z" fill="#876a22"/><path d="M501.98 860.26h5.42v20.83H470v-20.84h5.72v-7.1c0-7.28 5.87-13.16 13.13-13.16 7.26 0 13.13 5.88 13.13 13.15v7.1zm-6.66 0v-7.1c0-3.6-2.88-6.5-6.47-6.5-3.6 0-6.47 2.9-6.47 6.5v7.1h12.94z" fill="#daa835"/><path d="M470 881.1h37.4v.9H470z" fill="#876a22"/><use xlink:href="#i" transform="matrix(1,0,0,1,440,1090) translate(229.77469135802468 13.777777777777775)"/><path d="M1040 902c0-16.57 13.43-30 30-30h460c16.57 0 30 13.43 30 30v188c0 16.57-13.43 30-30 30h-460c-16.57 0-30-13.43-30-30z" stroke="#fff" fill-opacity="0"/><path d="M1101.97 860.24v-5.9c0-7.25-5.88-13.13-13.12-13.13-7.24 0-13.12 5.9-13.12 13.14v5.9h6.64v-5.9c0-3.58 2.9-6.5 6.48-6.5 3.57 0 6.48 2.92 6.48 6.5v5.9h6.64z" fill="#876a22"/><path d="M1101.98 860.26h5.42v20.83H1070v-20.84h5.72v-7.1c0-7.28 5.87-13.16 13.13-13.16 7.26 0 13.13 5.88 13.13 13.15v7.1zm-6.66 0v-7.1c0-3.6-2.88-6.5-6.47-6.5-3.6 0-6.47 2.9-6.47 6.5v7.1h12.94z" fill="#daa835"/><path d="M1070 881.1h37.4v.9H1070z" fill="#876a22"/><use xlink:href="#j" transform="matrix(1,0,0,1,1040,1090) translate(229.77469135802468 13.777777777777775)"/><path d="M162.14 781.57c0 21.2-18.4 38.42-41.07 38.42S80 802.77 80 781.56c0-21.2 18.4-38.42 41.07-38.42s41.07 17.2 41.07 38.42z" fill="#9d5025"/><path d="M80 778.42h82.14v3.15H80v-3.15z" fill="#9d5025"/><path d="M162.14 778.42c0 21.2-18.4 38.42-41.07 38.42S80 799.64 80 778.42c0-21.2 18.4-38.42 41.07-38.42s41.07 17.2 41.07 38.42z" fill="#f58536"/><path d="M90.1 782.24v-1c.3-4.66 3.1-8.54 7.6-10.57.45-8.58 8.24-15.2 17.46-14.75 5.75.26 10.58 3 13.5 7.65 4.7-1.85 10.07.18 12.05 4.55.32.62.5 1.14.63 1.77 6.2 1.14 10.64 6.68 10.64 11.34v.92c0 5.7-6.3 10.7-13.48 10.7h-34.97c-7.12.02-13.43-4.97-13.43-10.62z" fill="#fff"/><path d="M129.48 767.66l-2.62 1.7-1.34-2.72c-2.03-4.23-6.2-6.82-11.18-6.85h-.06c-6.8 0-12.36 5.18-12.36 11.58v2.16l-1.92.52c-3.27 1.23-5.4 3.9-5.67 7.2v.93c0 3.1 4.06 6.72 9.25 6.72h35c5.24 0 9.25-3.6 9.25-6.73v-.94c0-3.15-3.74-7.25-8.08-7.57l-2.35-.2-.16-2.17c0-.94-.32-1.7-.86-2.45-1.55-2.13-4.65-2.65-6.9-1.2z" fill="#f58536"/><use xlink:href="#k" transform="matrix(1,0,0,1,80,820) translate(25.96604938271605 13.11111111111111)"/><path d="M322.14 781.57c0 21.2-18.4 38.42-41.07 38.42S240 802.77 240 781.56c0-21.2 18.4-38.42 41.07-38.42s41.07 17.2 41.07 38.42z" fill="#9d5025"/><path d="M322.14 778.42c0 21.2-18.4 38.42-41.07 38.42S240 799.64 240 778.42c0-21.2 18.4-38.42 41.07-38.42s41.07 17.2 41.07 38.42z" fill="#f58536"/><path d="M246.54 767.2h14.9v22.43h-14.9V767.2zM294.2 751.9h13.3v12.44h-13.3V751.9zM294.2 772.2h13.3v12.44h-13.3V772.2zM294.2 792.5h13.3v12.46h-13.3V792.5z" fill="#fff"/><path d="M290.52 780.05l2.22-1 1.46-.67-1.46-.67-1.97-.9-5.94-2.75v2.74H267l20.27-12.16 1.6 2.34 3.36-5.32.98-1.55 1-1.54-1.9.2-2.15.24-6.34.7 1.54 2.2-24.85 14.9-2.74 1.62 3.28 1.95 24.3 14.57-1.53 2.2 6.35.7 2.15.24 1.9.2-1-1.55-.97-1.55-3.35-5.32-1.6 2.34L267 780.05h17.83v2.66l5.7-2.65z" fill="#fff"/><use xlink:href="#l" transform="matrix(1,0,0,1,239.99999999999997,820) translate(26.80864197530864 13.11111111111111)"/><path d="M161.63 790h63" stroke="#666" fill="none"/><path d="M161.65 790.5H161l.08-.2.15-.8h.42" fill="#666"/><path d="M239.38 790l-14.26 4.64v-9.28z" stroke="#666" fill="#666"/><path d="M700 871v-94.62" stroke="#fff" fill="none"/><path d="M699.5 871.5v-.5h1v.5" fill="#fff"/><path d="M700 761.62l4.64 14.26h-9.28z" stroke="#fff" fill="#fff"/><defs><path fill="#b2b2b2" d="M199 0l-22-63H83L61 0H9l90-248h61L250 0h-51zm-33-102l-36-108c-10 38-24 72-36 108h72" id="m"/><path fill="#b2b2b2" d="M275 0h-61l-44-196L126 0H64L0-248h53L97-49l45-199h58l43 199 44-199h52" id="n"/><path fill="#b2b2b2" d="M169-182c-1-43-94-46-97-3 18 66 151 10 154 114 3 95-165 93-204 36-6-8-10-19-12-30l50-8c3 46 112 56 116 5-17-69-150-10-154-114-4-87 153-88 188-35 5 8 8 18 10 28" id="o"/><g id="a"><use transform="matrix(0.0728395061728395,0,0,0.0728395061728395,0,0)" xlink:href="#m"/><use transform="matrix(0.0728395061728395,0,0,0.0728395061728395,17.40864197530864,0)" xlink:href="#n"/><use transform="matrix(0.0728395061728395,0,0,0.0728395061728395,42.10123456790124,0)" xlink:href="#o"/></g><path fill="#fff" d="M147 0H94L2-248h55l64 206c17-72 42-137 63-206h54" id="p"/><path fill="#fff" d="M24-248c93 1 206-16 204 79-1 75-69 88-152 82V0H24v-248zm52 121c47 0 100 7 100-41 0-47-54-39-100-39v80" id="q"/><path fill="#fff" d="M67-125c0 53 21 87 73 88 37 1 54-22 65-47l45 17C233-25 199 4 140 4 58 4 20-42 15-125 8-235 124-281 211-232c18 10 29 29 36 50l-46 12c-8-25-30-41-62-41-52 0-71 34-72 86" id="r"/><g id="b"><use transform="matrix(0.04938271604938272,0,0,0.04938271604938272,0,0)" xlink:href="#p"/><use transform="matrix(0.04938271604938272,0,0,0.04938271604938272,11.851851851851853,0)" xlink:href="#q"/><use transform="matrix(0.04938271604938272,0,0,0.04938271604938272,23.703703703703706,0)" xlink:href="#r"/></g><path fill="#fff" d="M205 0l-28-72H64L36 0H1l101-248h38L239 0h-34zm-38-99l-47-123c-12 45-31 82-46 123h93" id="s"/><path fill="#fff" d="M108 0H70L1-190h34L89-25l56-165h34" id="t"/><path fill="#fff" d="M141-36C126-15 110 5 73 4 37 3 15-17 15-53c-1-64 63-63 125-63 3-35-9-54-41-54-24 1-41 7-42 31l-33-3c5-37 33-52 76-52 45 0 72 20 72 64v82c-1 20 7 32 28 27v20c-31 9-61-2-59-35zM48-53c0 20 12 33 32 33 41-3 63-29 60-74-43 2-92-5-92 41" id="u"/><path fill="#fff" d="M24-231v-30h32v30H24zM24 0v-190h32V0H24" id="v"/><path fill="#fff" d="M24 0v-261h32V0H24" id="w"/><path fill="#fff" d="M115-194c53 0 69 39 70 98 0 66-23 100-70 100C84 3 66-7 56-30L54 0H23l1-261h32v101c10-23 28-34 59-34zm-8 174c40 0 45-34 45-75 0-40-5-75-45-74-42 0-51 32-51 76 0 43 10 73 51 73" id="x"/><path fill="#fff" d="M59-47c-2 24 18 29 38 22v24C64 9 27 4 27-40v-127H5v-23h24l9-43h21v43h35v23H59v120" id="y"/><path fill="#fff" d="M179-190L93 31C79 59 56 82 12 73V49c39 6 53-20 64-50L1-190h34L92-34l54-156h33" id="z"/><g id="c"><use transform="matrix(0.04320987654320988,0,0,0.04320987654320988,0,0)" xlink:href="#s"/><use transform="matrix(0.04320987654320988,0,0,0.04320987654320988,10.067901234567902,0)" xlink:href="#t"/><use transform="matrix(0.04320987654320988,0,0,0.04320987654320988,17.84567901234568,0)" xlink:href="#u"/><use transform="matrix(0.04320987654320988,0,0,0.04320987654320988,26.48765432098766,0)" xlink:href="#v"/><use transform="matrix(0.04320987654320988,0,0,0.04320987654320988,29.90123456790124,0)" xlink:href="#w"/><use transform="matrix(0.04320987654320988,0,0,0.04320987654320988,33.314814814814824,0)" xlink:href="#u"/><use transform="matrix(0.04320987654320988,0,0,0.04320987654320988,41.9567901234568,0)" xlink:href="#x"/><use transform="matrix(0.04320987654320988,0,0,0.04320987654320988,50.59876543209877,0)" xlink:href="#v"/><use transform="matrix(0.04320987654320988,0,0,0.04320987654320988,54.01234567901235,0)" xlink:href="#w"/><use transform="matrix(0.04320987654320988,0,0,0.04320987654320988,57.425925925925945,0)" xlink:href="#v"/><use transform="matrix(0.04320987654320988,0,0,0.04320987654320988,60.83950617283952,0)" xlink:href="#y"/><use transform="matrix(0.04320987654320988,0,0,0.04320987654320988,65.16049382716051,0)" xlink:href="#z"/></g><path fill="#fff" d="M209 0H11v-25l151-195H24v-28h176v25L50-27h159V0" id="A"/><path fill="#fff" d="M100-194c62-1 85 37 85 99 1 63-27 99-86 99S16-35 15-95c0-66 28-99 85-99zM99-20c44 1 53-31 53-75 0-43-8-75-51-75s-53 32-53 75 10 74 51 75" id="B"/><path fill="#fff" d="M117-194c89-4 53 116 60 194h-32v-121c0-31-8-49-39-48C34-167 62-67 57 0H25l-1-190h30c1 10-1 24 2 32 11-22 29-35 61-36" id="C"/><path fill="#fff" d="M100-194c63 0 86 42 84 106H49c0 40 14 67 53 68 26 1 43-12 49-29l28 8c-11 28-37 45-77 45C44 4 14-33 15-96c1-61 26-98 85-98zm52 81c6-60-76-77-97-28-3 7-6 17-6 28h103" id="D"/><g id="d"><use transform="matrix(0.04320987654320988,0,0,0.04320987654320988,0,0)" xlink:href="#A"/><use transform="matrix(0.04320987654320988,0,0,0.04320987654320988,9.462962962962964,0)" xlink:href="#B"/><use transform="matrix(0.04320987654320988,0,0,0.04320987654320988,18.10493827160494,0)" xlink:href="#C"/><use transform="matrix(0.04320987654320988,0,0,0.04320987654320988,26.746913580246915,0)" xlink:href="#D"/></g><use transform="matrix(0.04320987654320988,0,0,0.04320987654320988,0,0)" xlink:href="#s" id="e"/><path fill="#fff" d="M135-143c-3-34-86-38-87 0 15 53 115 12 119 90S17 21 10-45l28-5c4 36 97 45 98 0-10-56-113-15-118-90-4-57 82-63 122-42 12 7 21 19 24 35" id="E"/><path fill="#fff" d="M84 4C-5 8 30-112 23-190h32v120c0 31 7 50 39 49 72-2 45-101 50-169h31l1 190h-30c-1-10 1-25-2-33-11 22-28 36-60 37" id="F"/><path fill="#fff" d="M16-82v-28h88v28H16" id="G"/><path fill="#fff" d="M27 0v-27h64v-190l-56 39v-29l58-41h29v221h61V0H27" id="H"/><g id="f"><use transform="matrix(0.04320987654320988,0,0,0.04320987654320988,0,0)" xlink:href="#E"/><use transform="matrix(0.04320987654320988,0,0,0.04320987654320988,7.777777777777779,0)" xlink:href="#F"/><use transform="matrix(0.04320987654320988,0,0,0.04320987654320988,16.419753086419753,0)" xlink:href="#x"/><use transform="matrix(0.04320987654320988,0,0,0.04320987654320988,25.061728395061728,0)" xlink:href="#C"/><use transform="matrix(0.04320987654320988,0,0,0.04320987654320988,33.7037037037037,0)" xlink:href="#D"/><use transform="matrix(0.04320987654320988,0,0,0.04320987654320988,42.34567901234568,0)" xlink:href="#y"/><use transform="matrix(0.04320987654320988,0,0,0.04320987654320988,46.666666666666664,0)" xlink:href="#G"/><use transform="matrix(0.04320987654320988,0,0,0.04320987654320988,51.80864197530864,0)" xlink:href="#H"/></g><path fill="#fff" d="M101-251c82-7 93 87 43 132L82-64C71-53 59-42 53-27h129V0H18c2-99 128-94 128-182 0-28-16-43-45-43s-46 15-49 41l-32-3c6-41 34-60 81-64" id="I"/><g id="g"><use transform="matrix(0.04320987654320988,0,0,0.04320987654320988,0,0)" xlink:href="#E"/><use transform="matrix(0.04320987654320988,0,0,0.04320987654320988,7.777777777777779,0)" xlink:href="#F"/><use transform="matrix(0.04320987654320988,0,0,0.04320987654320988,16.419753086419753,0)" xlink:href="#x"/><use transform="matrix(0.04320987654320988,0,0,0.04320987654320988,25.061728395061728,0)" xlink:href="#C"/><use transform="matrix(0.04320987654320988,0,0,0.04320987654320988,33.7037037037037,0)" xlink:href="#D"/><use transform="matrix(0.04320987654320988,0,0,0.04320987654320988,42.34567901234568,0)" xlink:href="#y"/><use transform="matrix(0.04320987654320988,0,0,0.04320987654320988,46.666666666666664,0)" xlink:href="#G"/><use transform="matrix(0.04320987654320988,0,0,0.04320987654320988,51.80864197530864,0)" xlink:href="#I"/></g><path fill="#fff" d="M160-131c35 5 61 23 61 61C221 17 115-2 30 0v-248c76 3 177-17 177 60 0 33-19 50-47 57zm-97-11c50-1 110 9 110-42 0-47-63-36-110-37v79zm0 115c55-2 124 14 124-45 0-56-70-42-124-44v89" id="J"/><use transform="matrix(0.04320987654320988,0,0,0.04320987654320988,0,0)" xlink:href="#J" id="h"/><path fill="#fff" d="M126-127c33 6 58 20 58 59 0 88-139 92-164 29-3-8-5-16-6-25l32-3c6 27 21 44 54 44 32 0 52-15 52-46 0-38-36-46-79-43v-28c39 1 72-4 72-42 0-27-17-43-46-43-28 0-47 15-49 41l-32-3c6-42 35-63 81-64 48-1 79 21 79 65 0 36-21 52-52 59" id="K"/><g id="i"><use transform="matrix(0.04320987654320988,0,0,0.04320987654320988,0,0)" xlink:href="#E"/><use transform="matrix(0.04320987654320988,0,0,0.04320987654320988,7.777777777777779,0)" xlink:href="#F"/><use transform="matrix(0.04320987654320988,0,0,0.04320987654320988,16.419753086419753,0)" xlink:href="#x"/><use transform="matrix(0.04320987654320988,0,0,0.04320987654320988,25.061728395061728,0)" xlink:href="#C"/><use transform="matrix(0.04320987654320988,0,0,0.04320987654320988,33.7037037037037,0)" xlink:href="#D"/><use transform="matrix(0.04320987654320988,0,0,0.04320987654320988,42.34567901234568,0)" xlink:href="#y"/><use transform="matrix(0.04320987654320988,0,0,0.04320987654320988,46.666666666666664,0)" xlink:href="#G"/><use transform="matrix(0.04320987654320988,0,0,0.04320987654320988,51.80864197530864,0)" xlink:href="#K"/></g><path fill="#fff" d="M155-56V0h-30v-56H8v-25l114-167h33v167h35v25h-35zm-30-156c-27 46-58 90-88 131h88v-131" id="L"/><g id="j"><use transform="matrix(0.04320987654320988,0,0,0.04320987654320988,0,0)" xlink:href="#E"/><use transform="matrix(0.04320987654320988,0,0,0.04320987654320988,7.777777777777779,0)" xlink:href="#F"/><use transform="matrix(0.04320987654320988,0,0,0.04320987654320988,16.419753086419753,0)" xlink:href="#x"/><use transform="matrix(0.04320987654320988,0,0,0.04320987654320988,25.061728395061728,0)" xlink:href="#C"/><use transform="matrix(0.04320987654320988,0,0,0.04320987654320988,33.7037037037037,0)" xlink:href="#D"/><use transform="matrix(0.04320987654320988,0,0,0.04320987654320988,42.34567901234568,0)" xlink:href="#y"/><use transform="matrix(0.04320987654320988,0,0,0.04320987654320988,46.666666666666664,0)" xlink:href="#G"/><use transform="matrix(0.04320987654320988,0,0,0.04320987654320988,51.80864197530864,0)" xlink:href="#L"/></g><path fill="#fff" d="M33 0v-248h34V0H33" id="M"/><path fill="#fff" d="M143 4C61 4 22-44 18-125c-5-107 100-154 193-111 17 8 29 25 37 43l-32 9c-13-25-37-40-76-40-61 0-88 39-88 99 0 61 29 100 91 101 35 0 62-11 79-27v-45h-74v-28h105v86C228-13 192 4 143 4" id="N"/><path fill="#fff" d="M266 0h-40l-56-210L115 0H75L2-248h35L96-30l15-64 43-154h32l59 218 59-218h35" id="O"/><g id="k"><use transform="matrix(0.04320987654320988,0,0,0.04320987654320988,0,0)" xlink:href="#M"/><use transform="matrix(0.04320987654320988,0,0,0.04320987654320988,4.320987654320988,0)" xlink:href="#N"/><use transform="matrix(0.04320987654320988,0,0,0.04320987654320988,16.419753086419753,0)" xlink:href="#O"/></g><path fill="#fff" d="M30 0v-248h187v28H63v79h144v27H63v87h162V0H30" id="P"/><path fill="#fff" d="M30 0v-248h33v221h125V0H30" id="Q"/><g id="l"><use transform="matrix(0.04320987654320988,0,0,0.04320987654320988,0,0)" xlink:href="#P"/><use transform="matrix(0.04320987654320988,0,0,0.04320987654320988,10.370370370370372,0)" xlink:href="#Q"/><use transform="matrix(0.04320987654320988,0,0,0.04320987654320988,19.01234567901235,0)" xlink:href="#J"/></g></defs></g></svg>